<?xml version="1.0" standalone="no"?>
<!DOCTYPE svg PUBLIC "-//W3C//DTD SVG 20010904//EN"
 "http://www.w3.org/TR/2001/REC-SVG-20010904/DTD/svg10.dtd">
<svg version="1.0" xmlns="http://www.w3.org/2000/svg"
 width="500.000000pt" height="500.000000pt" viewBox="0 0 500.000000 500.000000"
 preserveAspectRatio="xMidYMid meet">

<g transform="translate(0.000000,500.000000) scale(0.100000,-0.100000)"
fill="#000000" stroke="none">
<path d="M1426 4425 c-71 -29 -119 -66 -167 -130 -62 -81 -69 -118 -69 -371
l0 -223 43 -6 c23 -4 128 -5 232 -3 189 3 190 3 256 34 89 43 142 93 181 172
l33 66 3 243 3 243 -228 0 c-218 0 -231 -2 -287 -25z m162 -209 c17 -38 77
-100 116 -121 43 -23 44 -28 11 -43 -38 -18 -111 -89 -125 -122 -15 -37 -25
-38 -44 -2 -20 37 -56 73 -111 113 l-46 33 36 19 c45 23 113 92 121 123 8 31
28 31 42 0z"/>
<path d="M2002 3077 l3 -1372 33 -68 c80 -163 290 -288 487 -291 l80 -1 3
1318 2 1319 188 -4 c172 -3 191 -5 235 -26 59 -30 94 -86 110 -177 6 -35 16
-66 22 -69 11 -4 143 51 320 133 50 23 126 58 170 79 112 51 108 45 80 108
-76 173 -234 307 -435 373 -143 46 -221 51 -778 51 l-522 0 2 -1373z"/>
<path d="M3395 2081 c-6 -5 -27 -14 -47 -20 -41 -14 -124 -98 -134 -137 -8
-31 -20 -30 -28 2 -9 36 -84 114 -131 135 -52 24 -92 24 -159 -2 -77 -28 -148
-96 -188 -177 l-33 -66 -3 -243 c-3 -275 -8 -262 77 -218 52 26 112 90 132
140 l11 30 11 -25 c7 -14 15 -29 19 -35 61 -83 126 -125 195 -125 91 0 219 97
274 207 23 46 24 58 27 296 2 136 -1 247 -5 247 -5 0 -13 -4 -18 -9z"/>
<path d="M1145 1148 c-23 -68 -35 -142 -25 -152 9 -8 16 -5 28 14 42 64 68 80
125 80 48 0 55 -3 61 -22 8 -30 6 -317 -2 -388 -7 -53 -8 -55 -39 -58 -21 -2
-33 -9 -33 -18 0 -11 23 -14 125 -14 99 0 125 3 125 14 0 7 -15 17 -32 22
l-33 10 -3 227 -2 227 47 0 c72 0 86 -7 118 -55 52 -77 65 -58 44 63 -10 58
-13 63 -33 57 -96 -28 -403 -32 -429 -6 -15 15 -37 14 -42 -1z"/>
<path d="M1668 894 c-27 -13 -48 -27 -48 -30 0 -3 11 -15 25 -26 25 -19 26
-24 23 -117 -3 -91 -4 -96 -25 -99 -13 -2 -23 -10 -23 -18 0 -11 20 -14 100
-14 80 0 100 3 100 14 0 9 -12 16 -27 18 l-28 3 -3 92 c-4 119 4 135 62 127
38 -6 46 -4 55 15 30 56 -42 82 -97 36 l-30 -25 -6 25 c-8 31 -18 31 -78 -1z"/>
<path d="M1970 898 c-49 -34 -70 -67 -77 -126 -7 -65 16 -131 60 -168 28 -24
37 -26 98 -22 70 4 105 23 131 72 16 29 -6 42 -31 17 -26 -26 -67 -36 -100
-25 -33 12 -71 69 -71 105 l0 29 100 0 100 0 0 25 c0 39 -27 83 -60 100 -43
22 -111 19 -150 -7z m115 -49 c9 -29 -11 -41 -55 -33 -43 7 -43 8 -35 34 14
44 76 43 90 -1z"/>
<path d="M2278 894 c-27 -13 -48 -28 -48 -32 0 -4 9 -15 20 -25 18 -15 20 -29
20 -117 0 -93 -1 -100 -20 -100 -11 0 -20 -7 -20 -15 0 -12 16 -15 85 -15 84
0 104 9 65 30 -18 10 -20 21 -20 110 0 87 3 103 20 120 24 24 48 25 78 4 20
-14 22 -23 22 -121 0 -96 -2 -105 -20 -110 -11 -3 -20 -12 -20 -19 0 -11 19
-14 85 -14 66 0 85 3 85 14 0 7 -9 16 -20 19 -19 5 -20 14 -20 120 l0 115 -35
31 c-43 37 -93 41 -143 11 l-34 -21 -5 21 c-7 25 -17 25 -75 -6z"/>
<path d="M2740 897 c-150 -79 -96 -317 72 -317 64 0 109 20 143 64 115 151
-47 342 -215 253z m119 -41 c64 -68 36 -236 -39 -236 -23 0 -35 8 -51 33 -27
43 -24 174 5 206 25 28 57 27 85 -3z"/>
<path d="M3474 901 c-79 -36 -103 -121 -34 -121 18 0 40 33 40 61 0 23 5 30
27 35 31 8 63 -23 63 -62 0 -19 -13 -30 -68 -58 -38 -19 -74 -41 -81 -50 -22
-26 -19 -95 4 -112 27 -20 85 -17 119 5 28 18 29 18 47 0 38 -38 119 -14 119
35 0 13 -5 16 -21 11 -33 -11 -39 9 -39 127 0 97 -2 109 -22 128 -28 26 -98
26 -154 1z m77 -255 c-17 -16 -25 -18 -39 -10 -30 19 -26 51 9 87 l33 32 9
-44 c8 -38 6 -46 -12 -65z"/>
<path d="M3010 895 c0 -8 6 -15 13 -15 23 0 42 -30 77 -120 46 -119 78 -180
94 -180 8 0 27 30 42 68 58 136 110 227 133 230 11 2 21 10 21 18 0 11 -16 14
-70 14 -56 0 -70 -3 -70 -15 0 -8 7 -15 15 -15 8 0 15 -8 15 -19 0 -17 -6 -35
-46 -128 l-16 -38 -28 75 c-33 86 -36 110 -15 110 8 0 15 7 15 15 0 12 -17 15
-90 15 -73 0 -90 -3 -90 -15z"/>
<path d="M3780 670 c-24 -24 -25 -38 -4 -68 35 -51 120 -2 92 52 -22 41 -57
47 -88 16z"/>
</g>
</svg>
